<svg width="464" height="12" viewBox="0 0 464 12" fill="none" xmlns="http://www.w3.org/2000/svg">
<path d="M9.06063 10.084C10.3686 10.084 11.6406 9.652 12.4206 9.028V5.356H8.86863V6.808H10.7766V8.056C10.2366 8.392 9.67263 8.548 9.06063 8.548C7.46463 8.548 6.48063 7.324 6.48063 5.752C6.48063 4.012 7.58463 2.968 8.98863 2.968C9.92463 2.968 10.6566 3.328 11.1846 3.856L12.3726 2.824C11.4966 1.852 10.2006 1.372 8.98863 1.372C6.32463 1.372 4.71663 3.256 4.71663 5.752C4.71663 8.488 6.60063 10.084 9.06063 10.084ZM14.3046 10H20.0046V8.5H15.9726V6.508H18.9966V5.032H15.9726V2.98H19.7526V1.48H14.3046V10ZM23.4331 10H25.1371V2.98H27.5011V1.48H21.1051V2.98H23.4331V10ZM31.8418 10H37.2058V8.524H34.2418L34.2298 8.488L35.7658 6.88C36.8338 5.776 37.1338 5.044 37.1338 4.108C37.1338 2.584 35.8858 1.672 34.5058 1.672C33.1258 1.672 32.2618 2.356 31.7818 3.232L32.9458 4.06C33.3058 3.46 33.7978 3.184 34.3858 3.184C35.0218 3.184 35.4778 3.664 35.4778 4.3C35.4778 4.96 35.0458 5.512 34.3738 6.208L31.8178 8.932L31.8418 10ZM41.7453 10.108C43.7493 10.108 44.9613 8.404 44.9613 5.884C44.9613 3.208 43.6533 1.66 41.7453 1.66C39.7533 1.66 38.5293 3.364 38.5293 5.884C38.5293 8.548 39.8373 10.108 41.7453 10.108ZM41.7453 8.584C40.7853 8.584 40.1973 7.54 40.1973 5.884C40.1973 4.132 40.7973 3.172 41.7453 3.172C42.7293 3.172 43.2933 4.204 43.2933 5.884C43.2933 7.636 42.7053 8.584 41.7453 8.584ZM49.5205 10.108C51.5245 10.108 52.7365 8.404 52.7365 5.884C52.7365 3.208 51.4285 1.66 49.5205 1.66C47.5285 1.66 46.3045 3.364 46.3045 5.884C46.3045 8.548 47.6125 10.108 49.5205 10.108ZM49.5205 8.584C48.5605 8.584 47.9725 7.54 47.9725 5.884C47.9725 4.132 48.5725 3.172 49.5205 3.172C50.5045 3.172 51.0685 4.204 51.0685 5.884C51.0685 7.636 50.4805 8.584 49.5205 8.584ZM61.7697 10.084C63.2697 10.084 64.4217 9.388 65.1537 8.476L63.9177 7.408C63.4017 8.044 62.6577 8.488 61.7697 8.488C60.2457 8.488 59.1897 7.348 59.1897 5.764C59.1897 4.06 60.2937 2.98 61.7457 2.98C62.6217 2.98 63.3417 3.388 63.8937 4.06L65.1417 3.016C64.2297 1.9 62.9697 1.372 61.7457 1.372C58.9857 1.372 57.4257 3.328 57.4257 5.764C57.4257 8.572 59.3937 10.084 61.7697 10.084ZM66.6738 10H68.3418V7.084H69.3138L71.2218 10H73.2258L71.0898 6.88C72.2658 6.496 72.8658 5.608 72.8658 4.312C72.8658 2.68 71.9538 1.48 69.9018 1.48H66.6738V10ZM68.3418 5.596V2.98H69.6378C70.6098 2.98 71.1258 3.496 71.1258 4.288C71.1258 5.068 70.5978 5.596 69.5658 5.596H68.3418ZM74.7771 10H80.4771V8.5H76.4451V6.508H79.4691V5.032H76.4451V2.98H80.2251V1.48H74.7771V10ZM82.189 10H85.045C87.781 10 89.437 8.26 89.437 5.752C89.437 3.232 87.709 1.48 85.009 1.48H82.189V10ZM83.857 8.5V2.98H85.033C86.581 2.98 87.673 4.156 87.673 5.752C87.673 7.312 86.593 8.5 84.937 8.5H83.857ZM91.2075 10H92.9235V1.48H91.2075V10ZM96.8074 10H98.5114V2.98H100.875V1.48H94.4794V2.98H96.8074V10ZM104.93 10.108C106.31 10.108 107.954 9.34 107.954 7.468C107.954 5.824 106.778 5.44 105.302 4.864C104.318 4.48 103.862 4.264 103.862 3.736C103.874 3.196 104.306 2.884 104.894 2.884C105.422 2.884 106.046 3.148 106.754 3.724L107.738 2.452C106.886 1.756 105.914 1.372 104.858 1.372C103.334 1.384 102.122 2.44 102.122 3.808C102.122 5.428 103.406 6.016 104.702 6.46C105.734 6.82 106.178 7.048 106.178 7.672C106.178 8.2 105.782 8.572 104.966 8.572C104.294 8.572 103.478 8.224 102.842 7.504L101.822 8.752C102.722 9.676 103.838 10.108 104.93 10.108ZM116.905 10.108C119.401 10.108 121.237 8.332 121.237 5.74C121.237 3.136 119.401 1.372 116.905 1.372C114.325 1.372 112.561 3.208 112.561 5.74C112.561 8.272 114.325 10.108 116.905 10.108ZM116.905 8.524C115.369 8.524 114.313 7.288 114.313 5.74C114.313 4.192 115.369 2.956 116.905 2.956C118.369 2.956 119.473 4.132 119.473 5.74C119.473 7.348 118.369 8.524 116.905 8.524ZM122.981 10H124.661V4.372H124.685L128.465 10H130.157V1.48H128.489V7.228H128.465L124.637 1.48H122.981V10ZM138.146 10.108C139.526 10.108 141.17 9.34 141.17 7.468C141.17 5.824 139.994 5.44 138.518 4.864C137.534 4.48 137.078 4.264 137.078 3.736C137.09 3.196 137.522 2.884 138.11 2.884C138.638 2.884 139.262 3.148 139.97 3.724L140.954 2.452C140.102 1.756 139.13 1.372 138.074 1.372C136.55 1.384 135.338 2.44 135.338 3.808C135.338 5.428 136.622 6.016 137.918 6.46C138.95 6.82 139.394 7.048 139.394 7.672C139.394 8.2 138.998 8.572 138.182 8.572C137.51 8.572 136.694 8.224 136.058 7.504L135.038 8.752C135.938 9.676 137.054 10.108 138.146 10.108ZM142.85 10H144.566V1.48H142.85V10ZM150.706 10.084C152.014 10.084 153.286 9.652 154.066 9.028V5.356H150.514V6.808H152.422V8.056C151.882 8.392 151.318 8.548 150.706 8.548C149.11 8.548 148.126 7.324 148.126 5.752C148.126 4.012 149.23 2.968 150.634 2.968C151.57 2.968 152.302 3.328 152.83 3.856L154.018 2.824C153.142 1.852 151.846 1.372 150.634 1.372C147.97 1.372 146.362 3.256 146.362 5.752C146.362 8.488 148.246 10.084 150.706 10.084ZM155.95 10H157.63V4.372H157.654L161.434 10H163.126V1.48H161.458V7.228H161.434L157.606 1.48H155.95V10ZM171.883 10.108C174.067 10.108 175.351 8.692 175.351 6.472V1.48H173.659V6.364C173.659 7.72 172.915 8.524 171.883 8.524C170.755 8.524 170.131 7.588 170.131 6.364V1.48H168.439V6.472C168.439 8.8 169.831 10.108 171.883 10.108ZM177.319 10H178.987V7.084H180.307C182.179 7.084 183.439 6.184 183.439 4.312C183.439 2.68 182.539 1.48 180.475 1.48H177.319V10ZM178.987 5.596V2.98H180.211C181.183 2.98 181.687 3.496 181.687 4.288C181.687 5.068 181.183 5.596 180.127 5.596H178.987Z" fill="#FF9502"/>
<path d="M194.442 0.799553C194.528 0.554228 194.875 0.554229 194.961 0.799554L195.782 3.14298C195.81 3.22124 195.871 3.28293 195.949 3.31088L198.277 4.14418C198.52 4.2312 198.52 4.57497 198.277 4.66199L195.949 5.49529C195.871 5.52324 195.81 5.58493 195.782 5.66319L194.961 8.00662C194.875 8.25194 194.528 8.25194 194.442 8.00662L193.62 5.66319C193.592 5.58493 193.531 5.52324 193.453 5.49529L191.125 4.66199C190.882 4.57497 190.882 4.2312 191.125 4.14418L193.453 3.31088C193.531 3.28293 193.592 3.22124 193.62 3.14298L194.442 0.799553Z" fill="#FF9502"/>
<path d="M190.585 6.93139C190.671 6.68606 191.018 6.68606 191.104 6.93139L191.546 8.19005C191.573 8.26831 191.634 8.33 191.713 8.35796L192.966 8.80688C193.21 8.89391 193.21 9.23767 192.966 9.3247L191.713 9.77363C191.634 9.80158 191.573 9.86327 191.546 9.94153L191.104 11.2002C191.018 11.4455 190.671 11.4455 190.585 11.2002L190.144 9.94153C190.116 9.86327 190.055 9.80158 189.977 9.77363L188.723 9.3247C188.48 9.23767 188.48 8.89391 188.723 8.80688L189.977 8.35796C190.055 8.33 190.116 8.26831 190.144 8.19005L190.585 6.93139Z" fill="#FF9502"/>
</svg>
